<svg width="163" height="32" viewBox="0 0 163 32" fill="none" xmlns="http://www.w3.org/2000/svg">
<rect width="163" height="32" fill="white"/>
<g clip-path="url(#clip0_10430_388)">
<path fill-rule="evenodd" clip-rule="evenodd" d="M120.353 11.7573C121.149 10.5716 122.521 9.91291 124.289 9.91291C127.088 9.91291 129.278 11.8671 129.278 15.3803V23.477H125.875V15.792C125.875 13.9695 124.794 13.0473 123.262 13.0473C121.593 13.0473 120.353 14.0409 120.353 16.3409V23.477H116.949V5H120.353V11.7573ZM98.1376 18.8275C98.1209 18.7943 98.0972 18.7652 98.0681 18.7422C98.0389 18.7192 98.005 18.703 97.9688 18.6946C97.9327 18.6862 97.8951 18.6859 97.8588 18.6937C97.8225 18.7015 97.7884 18.7172 97.7588 18.7397C96.336 19.8714 94.591 20.5229 92.7745 20.6006C90.1891 20.5292 89.8323 19.4258 89.7829 19.1294C89.7873 19.1169 89.7955 19.1059 89.8062 19.0981C89.817 19.0902 89.8299 19.0859 89.8433 19.0855C95.1898 19.3545 98.0772 16.3738 98.0498 13.7554C98.0498 12.5313 97.2483 10.4124 94.2512 10.0556C93.474 9.95091 92.6845 9.98248 91.9182 10.1489H91.8908H91.7865C90.7022 10.3955 89.6919 10.896 88.8387 11.6091C87.4098 12.7892 86.4388 14.4321 86.0941 16.253C86.0941 16.2661 86.0889 16.2787 86.0796 16.288C86.0703 16.2972 86.0578 16.3024 86.0447 16.3024C85.0062 16.2946 83.9704 16.1973 82.9487 16.0115C82.6303 15.9676 82.301 15.9127 81.9661 15.8413C80.9973 15.6443 80.0543 15.3368 79.1556 14.9246C76.411 13.6237 79.0897 11.6311 82.4492 13.6237C82.5095 13.6573 82.5804 13.667 82.6475 13.6507C82.7147 13.6344 82.7732 13.5934 82.8115 13.5358L84.2277 11.4115C84.2476 11.3811 84.2612 11.347 84.2675 11.3112C84.2739 11.2754 84.273 11.2387 84.2647 11.2033C84.2565 11.1679 84.2412 11.1346 84.2198 11.1052C84.1983 11.0759 84.1711 11.0512 84.1399 11.0327C83.1902 10.4838 79.0952 8.67781 75.4394 11.0931C74.6219 10.4352 73.6068 10.0717 72.5575 10.0611C70.1202 10.0611 69.2255 11.4993 69.2255 11.4993L69.4286 10.2752C69.4349 10.2368 69.4329 10.1976 69.4226 10.1601C69.4123 10.1226 69.394 10.0878 69.3689 10.058C69.3439 10.0283 69.3127 10.0043 69.2775 9.9878C69.2423 9.97127 69.204 9.96258 69.1651 9.96231H65.8715C65.8029 9.96218 65.7369 9.98825 65.6869 10.0352C65.6369 10.0821 65.6067 10.1464 65.6025 10.2148C65.5422 11.159 65.2567 14.5404 64.2741 16.3628C62.781 19.2172 59.2185 20.6445 57.2588 20.5896C54.6679 20.5127 54.3166 19.4149 54.2672 19.1184C54.2655 19.1096 54.2659 19.1006 54.2682 19.092C54.2705 19.0833 54.2747 19.0753 54.2804 19.0685C54.2862 19.0616 54.2934 19.0562 54.3016 19.0525C54.3097 19.0488 54.3186 19.0469 54.3275 19.0471C59.6741 19.3106 62.5615 16.3354 62.5615 13.717C62.5615 12.3776 61.6063 9.9678 57.8626 9.96231C54.6898 9.96231 51.9562 12.0647 50.8748 15.2869C50.8696 15.2928 50.8633 15.2974 50.8562 15.3006C50.8491 15.3038 50.8414 15.3055 50.8336 15.3055C50.8258 15.3055 50.8181 15.3038 50.811 15.3006C50.8039 15.2974 50.7976 15.2928 50.7924 15.2869C49.6946 14.2494 49.6067 11.1809 49.6067 10.2093C49.6067 10.138 49.5784 10.0696 49.528 10.0191C49.4775 9.96869 49.4091 9.94035 49.3378 9.94035H46.4284C46.3571 9.94035 46.2887 9.96869 46.2382 10.0191C46.1878 10.0696 46.1595 10.138 46.1595 10.2093C46.1685 11.5716 46.049 12.9316 45.8027 14.2714C44.8914 18.6024 43.3325 19.8924 42.5914 19.8156C42.1413 19.7644 41.9581 19.1557 41.873 18.873L41.8645 18.8448L41.8559 18.8165C41.5649 17.8834 40.2091 12.1141 39.7644 10.1435C39.7499 10.0859 39.7167 10.0347 39.67 9.99797C39.6234 9.96123 39.5658 9.94096 39.5064 9.94035H35.8286C35.7852 9.94031 35.7425 9.95076 35.704 9.97082C35.6656 9.99087 35.6325 10.0199 35.6077 10.0555C35.5829 10.0911 35.5671 10.1322 35.5616 10.1752C35.5561 10.2182 35.5611 10.262 35.5761 10.3026L35.7243 10.6924C38.1341 17.3344 32.1233 20.6609 29.1372 20.5731C26.5462 20.5018 26.1894 19.4039 26.14 19.102C26.1393 19.0929 26.1404 19.0837 26.1434 19.0751C26.1463 19.0664 26.1511 19.0585 26.1573 19.0518C26.1635 19.0451 26.171 19.0397 26.1793 19.0361C26.1877 19.0325 26.1968 19.0306 26.2059 19.0306C31.5525 19.2996 34.4398 16.3189 34.4124 13.7005C34.4124 12.3611 33.4627 9.94584 29.719 9.94035C26.4255 9.94035 23.5875 12.2239 22.583 15.6657C22.5773 15.6726 22.5702 15.6781 22.5621 15.6819C22.554 15.6858 22.5452 15.6877 22.5363 15.6877C22.5274 15.6877 22.5186 15.6858 22.5105 15.6819C22.5024 15.6781 22.4953 15.6726 22.4896 15.6657C20.8428 14.2604 20.6672 11.6201 20.6288 10.7253C20.6259 10.6574 20.5969 10.5931 20.5478 10.5461C20.4987 10.499 20.4333 10.4728 20.3653 10.4728H17.3846C17.3486 10.4727 17.3129 10.4801 17.2798 10.4943C17.2467 10.5086 17.2169 10.5295 17.1922 10.5557C17.1675 10.582 17.1485 10.613 17.1362 10.6469C17.124 10.6808 17.1189 10.7168 17.1211 10.7528C17.1429 12.314 17.0383 13.8744 16.8082 15.4187C16.2593 19.4862 14.6674 20.2108 13.8056 20.2108C13.0535 20.2108 12.8065 19.5082 13.0535 17.5979L13.866 10.8516C13.8698 10.814 13.8657 10.7761 13.8539 10.7402C13.8421 10.7043 13.8229 10.6713 13.7976 10.6434C13.7722 10.6154 13.7412 10.5931 13.7067 10.5779C13.6721 10.5627 13.6347 10.555 13.597 10.5552H10.3638C10.2996 10.5558 10.2377 10.5794 10.1894 10.6217C10.1411 10.664 10.1095 10.7221 10.1003 10.7857L9.47452 15.523C9.39235 16.0531 9.2694 16.5762 9.10675 17.0874C8.36569 19.6344 7.08668 20.2877 6.50481 20.2877C5.50576 20.2877 5.50576 19.3161 5.74729 17.5101L6.38954 13.4755C6.72439 11.2797 5.45636 10.4618 5.16542 10.3081C4.39692 9.87996 2.46469 9.8086 0.142724 11.0876C0.0822254 11.1204 0.0362339 11.1747 0.013868 11.2397C-0.008498 11.3048 -0.0056078 11.3759 0.0219592 11.4389L0.966118 13.6346C0.994123 13.7002 1.04605 13.7525 1.11132 13.7811C1.1766 13.8096 1.25032 13.8122 1.31744 13.7883C1.49419 13.717 1.67829 13.6655 1.86637 13.6346C1.97391 13.6116 2.08517 13.6125 2.19235 13.6371C2.29952 13.6618 2.39998 13.7097 2.48665 13.7774C2.5674 13.8885 2.62463 14.015 2.65484 14.149C2.68504 14.283 2.68758 14.4218 2.66231 14.5568L2.01458 18.4378C1.58641 21.649 2.50861 23.8777 5.30815 23.8777C6.13316 23.8659 6.94304 23.6545 7.66859 23.2616C8.39414 22.8687 9.01376 22.306 9.47452 21.6216C9.47994 21.6086 9.48908 21.5974 9.5008 21.5896C9.51253 21.5818 9.5263 21.5776 9.54039 21.5776C9.55448 21.5776 9.56825 21.5818 9.57998 21.5896C9.5917 21.5974 9.60084 21.6086 9.60626 21.6216C10.0234 22.9445 11.1213 23.8612 13.1414 23.8612C16.2154 23.8612 19.1192 22.2144 20.2774 17.5375C20.2806 17.5291 20.2862 17.5219 20.2935 17.5168C20.3009 17.5116 20.3097 17.5089 20.3186 17.5089C20.3276 17.5089 20.3363 17.5116 20.3437 17.5168C20.3511 17.5219 20.3567 17.5291 20.3598 17.5375C20.8117 18.1377 21.4191 18.6028 22.1164 18.8824C22.127 18.8857 22.1364 18.8923 22.1433 18.9011C22.1502 18.9099 22.1542 18.9206 22.1548 18.9318C22.1548 19.36 22.4896 23.2299 27.0952 23.7898C31.8324 24.3662 35.6804 22.0003 37.9749 18.9208L38.8807 21.2428C38.8807 21.2428 39.7974 23.8612 41.8449 23.8612C44.4084 23.8612 47.0048 21.5392 48.4595 17.823C48.5308 17.6528 48.5967 17.4717 48.6571 17.274C48.6613 17.266 48.6675 17.2592 48.6753 17.2545C48.683 17.2498 48.6919 17.2473 48.701 17.2473C48.7101 17.2473 48.719 17.2498 48.7267 17.2545C48.7345 17.2592 48.7408 17.266 48.7449 17.274C49.1734 17.7141 49.682 18.0681 50.2435 18.317C50.2448 18.3192 50.2458 18.3216 50.2465 18.3241C50.2474 18.3271 50.2479 18.3303 50.2479 18.3335C50.2479 18.3393 50.2464 18.3449 50.2435 18.3499C50.1612 19.349 50.6442 23.2409 55.1839 23.7953C56.7807 24.0099 58.4051 23.8757 59.9451 23.4018C61.4851 22.928 62.9039 22.1258 64.104 21.0507C64.1125 21.0442 64.1227 21.0403 64.1334 21.0396C64.1441 21.0389 64.1548 21.0413 64.1641 21.0465C64.1734 21.0518 64.181 21.0596 64.186 21.0692C64.1909 21.0787 64.1929 21.0894 64.1918 21.1001L63.8844 23.5922C63.8797 23.6302 63.8832 23.6688 63.8946 23.7053C63.906 23.7418 63.9251 23.7755 63.9505 23.8041C63.976 23.8327 64.0072 23.8555 64.0422 23.871C64.0772 23.8865 64.1151 23.8944 64.1534 23.8941H67.4469C67.5134 23.8933 67.5773 23.8683 67.6268 23.8239C67.6763 23.7795 67.7079 23.7186 67.7159 23.6526L68.2209 19.0361C68.4954 16.5055 69.3188 15.232 70.2904 14.3647C71.0064 13.7547 71.9035 13.3978 72.8429 13.3492C72.9324 13.341 73.0224 13.341 73.1119 13.3492C73.3424 13.3876 73.584 13.4974 73.6114 13.7938C73.6161 14.4894 73.8142 15.1699 74.1836 15.7593C74.5529 16.3487 75.0789 16.8238 75.7028 17.1313C76.6226 17.6214 77.5652 17.9519 78.3678 18.2332C79.6059 18.6672 80.5107 18.9844 80.484 19.5905C80.4236 20.886 77.4814 20.886 74.4458 19.5905C74.3874 19.5665 74.3224 19.5637 74.2622 19.5828C74.2019 19.6019 74.1504 19.6415 74.1164 19.6948L72.6947 22.2967C72.675 22.3275 72.6618 22.3619 72.6559 22.3979C72.6499 22.4339 72.6513 22.4707 72.66 22.5062C72.6688 22.5416 72.6846 22.5749 72.7066 22.604C72.7286 22.6331 72.7563 22.6574 72.788 22.6755C74.7987 23.636 77.0108 24.0991 79.2379 24.0259C82.9048 23.8722 84.7272 21.649 84.826 19.0526C84.8264 19.0493 84.827 19.0461 84.828 19.043C84.829 19.0399 84.8303 19.0369 84.8318 19.034C84.835 19.0283 84.8392 19.0232 84.8443 19.0191C84.8494 19.0151 84.8553 19.012 84.8616 19.0102C84.8679 19.0084 84.8744 19.0079 84.8809 19.0087C85.1753 19.0237 85.4703 19.0237 85.7647 19.0087C85.776 19.0099 85.7864 19.0149 85.7944 19.0229C85.8024 19.0308 85.8074 19.0413 85.8086 19.0526C85.9788 20.5457 86.9449 23.3287 90.749 23.7953C92.2524 23.9956 93.7809 23.8871 95.241 23.4765C96.7011 23.066 98.0622 22.3619 99.2409 21.4075C99.2863 21.3709 99.3177 21.3198 99.3297 21.2628C99.3417 21.2058 99.3336 21.1463 99.3068 21.0946L98.1376 18.8275ZM26.1071 16.2366C26.1972 15.6814 26.4081 15.1527 26.7249 14.688C27.0417 14.2232 27.4567 13.8336 27.9405 13.5468C29.3019 12.674 30.6467 12.7948 30.9871 13.3492C31.3274 13.9036 31.2121 14.9301 29.4885 15.7864C28.4534 16.2726 27.3039 16.4626 26.1675 16.3354C26.1549 16.3387 26.1415 16.3379 26.1295 16.3331C26.1174 16.3283 26.1072 16.3196 26.1004 16.3085C26.0936 16.2974 26.0906 16.2844 26.0918 16.2714C26.093 16.2585 26.0984 16.2462 26.1071 16.2366ZM54.2287 16.2366C54.3188 15.6814 54.5297 15.1527 54.8465 14.688C55.1633 14.2232 55.5783 13.8336 56.0621 13.5468C57.429 12.674 58.7684 12.7948 59.1087 13.3492C59.4491 13.9036 59.3338 14.9301 57.6156 15.7864C56.5786 16.2725 55.4273 16.4625 54.2891 16.3354C54.2773 16.336 54.2655 16.3334 54.255 16.3279C54.2445 16.3223 54.2357 16.3141 54.2295 16.3039C54.2233 16.2938 54.22 16.2822 54.2199 16.2704C54.2197 16.2585 54.2228 16.2468 54.2287 16.2366ZM89.7445 16.2366C89.8346 15.6814 90.0455 15.1527 90.3623 14.688C90.6791 14.2232 91.094 13.8336 91.5779 13.5468C92.9447 12.6795 94.2896 12.8003 94.6244 13.3547C94.9593 13.9091 94.8495 14.9301 93.1313 15.7919C92.0971 16.2809 90.9469 16.471 89.8103 16.3409C89.7986 16.3409 89.787 16.338 89.7767 16.3324C89.7663 16.3269 89.7575 16.3189 89.751 16.3091C89.7444 16.2993 89.7404 16.2881 89.7393 16.2764C89.7382 16.2647 89.7399 16.2529 89.7445 16.2421V16.2366ZM155.556 9.9129C154.741 9.87117 153.928 10.0242 153.185 10.3593C152.441 10.6943 151.788 11.2018 151.279 11.8396V10.3026H147.871V28.7906H151.279V21.929C151.788 22.5668 152.441 23.0743 153.185 23.4093C153.928 23.7444 154.741 23.8974 155.556 23.8557C159.096 23.8557 162 20.8201 162 16.8843C162 12.9485 159.096 9.9129 155.556 9.9129ZM154.924 20.606C154.184 20.618 153.458 20.4095 152.837 20.0071C152.216 19.6046 151.729 19.0265 151.438 18.3462C151.146 17.666 151.064 16.9145 151.201 16.1874C151.339 15.4603 151.69 14.7905 152.209 14.2634C152.728 13.7363 153.393 13.3757 154.118 13.2275C154.843 13.0794 155.595 13.1504 156.28 13.4315C156.964 13.7126 157.55 14.191 157.961 14.8059C158.373 15.4208 158.592 16.1443 158.591 16.8843C158.617 17.3751 158.54 17.8658 158.365 18.3252C158.191 18.7846 157.922 19.2027 157.577 19.5528C157.233 19.9029 156.819 20.1773 156.362 20.3586C155.905 20.54 155.415 20.6242 154.924 20.606ZM138.473 9.91293C137.095 9.91727 135.75 10.3297 134.606 11.0981C133.463 11.8665 132.573 12.9565 132.048 14.2304C131.524 15.5043 131.389 16.9051 131.66 18.2558C131.931 19.6065 132.596 20.8466 133.571 21.8196C134.546 22.7926 135.788 23.4548 137.14 23.7227C138.491 23.9905 139.891 23.852 141.164 23.3245C142.437 22.7971 143.525 21.9044 144.29 20.7591C145.056 19.6139 145.465 18.2675 145.466 16.8898C145.477 15.9691 145.304 15.0556 144.956 14.203C144.608 13.3504 144.094 12.5761 143.442 11.9258C142.79 11.2755 142.014 10.7624 141.161 10.4167C140.308 10.071 139.394 9.89967 138.473 9.91293ZM138.473 20.5292C137.75 20.5401 137.04 20.3356 136.433 19.9418C135.827 19.548 135.351 18.9826 135.067 18.3176C134.782 17.6526 134.702 16.9181 134.837 16.2075C134.971 15.4969 135.314 14.8423 135.821 14.3271C136.329 13.8118 136.978 13.4592 137.687 13.314C138.395 13.1689 139.131 13.2378 139.8 13.512C140.469 13.7861 141.042 14.2532 141.445 14.8538C141.848 15.4543 142.063 16.1611 142.063 16.8843C142.082 17.3634 142.002 17.8412 141.829 18.2884C141.656 18.7355 141.393 19.1424 141.057 19.484C140.721 19.8256 140.318 20.0946 139.873 20.2743C139.429 20.4541 138.952 20.5409 138.473 20.5292ZM109.489 12.932C108.644 12.932 107.958 13.3163 107.958 14.0299C107.958 14.7901 108.986 15.071 110.244 15.4145C112.219 15.954 114.76 16.648 114.77 19.596C114.77 22.4505 112.289 23.8228 109.462 23.8228C106.822 23.8228 104.867 22.7139 103.918 20.6774L106.877 19.0306C107.053 19.5651 107.404 20.0249 107.872 20.3364C108.341 20.6479 108.901 20.7931 109.462 20.7488C110.549 20.7488 111.284 20.381 111.284 19.6125C111.284 18.8577 110.239 18.5603 108.967 18.1986C106.992 17.637 104.472 16.9203 104.472 14.0958C104.472 11.4005 106.745 9.89645 109.489 9.89645C110.501 9.86149 111.504 10.1038 112.388 10.5972C113.272 11.0907 114.005 11.8164 114.507 12.696L111.603 14.2769C111.425 13.8672 111.129 13.5201 110.752 13.2804C110.376 13.0407 109.936 12.9193 109.489 12.932Z" fill="#08CCCA"/>
</g>
<defs>
<clipPath id="clip0_10430_388">
<rect width="162" height="23.7686" fill="white" transform="translate(0 5)"/>
</clipPath>
</defs>
</svg>
